<mxfile host="app.diagrams.net" modified="2024-01-05T08:29:14.156Z" agent="Mozilla/5.0 (Windows NT 10.0; Win64; x64) AppleWebKit/537.36 (KHTML, like Gecko) Chrome/120.0.0.0 Safari/537.36" etag="UX9qMwPMpcKt7X5Ivpie" version="22.1.16" type="device">
  <diagram id="zvI-RTIJ6E7QTOwv6VY2" name="Sayfa -1">
    <mxGraphModel dx="1290" dy="-147" grid="1" gridSize="10" guides="1" tooltips="1" connect="1" arrows="1" fold="1" page="0" pageScale="1" pageWidth="827" pageHeight="1169" background="none" math="0" shadow="0">
      <root>
        <mxCell id="0" />
        <mxCell id="1" parent="0" />
        <mxCell id="node2" value="&lt;p style=&quot;margin:0px;margin-top:4px;text-align:center;&quot;&gt;&lt;b&gt;Student&lt;/b&gt;&lt;/p&gt;&lt;hr size=&quot;1&quot;&gt;&lt;p style=&quot;margin:0 0 0 4px;line-height:1.6;&quot;&gt; __draft: List&lt;br&gt; __transcript: Transcript&lt;br&gt; __advisor: Advisor&lt;br&gt; __hasRequest: Boolean&lt;br&gt; __notification: Notification&lt;br&gt; __semester: Integer&lt;br&gt; __system: &lt;br&gt; __labSections: List&lt;br&gt; __availableCoursesToDrop: List&lt;br&gt; __schedule: List&lt;br&gt; __availableCoursesToAdd: List&lt;/p&gt;&lt;hr size=&quot;1&quot;&gt;&lt;p style=&quot;margin:0 0 0 4px;line-height:1.6;&quot;&gt; __init__(self, studentID, name, surname, userName, password, semester): &lt;br&gt; sendRequest(self): &lt;br&gt; printMenu(self, menuType): &lt;br&gt; addCourseToDraft(self): &lt;br&gt; addMandatoryCourse(self): &lt;br&gt; chooseLabSection(self, course): &lt;br&gt; addTechnicalElective(self): &lt;br&gt; computeAvailableTEAndFTECourses(self, courseType): &lt;br&gt; addFacultyTechnicalElective(self): &lt;br&gt; addNonTechnicalElective(self): &lt;br&gt; computeAvailableNTECourses(self): &lt;br&gt; computeAvailableMandatoryCourses(self): &lt;br&gt; addCourseToDrop(self): &lt;br&gt; checkThePrerequisiteAndCourseThatWasTaken(self, course): &lt;br&gt; hasCourseOverlap(self, courseToAdd, isLab): &lt;br&gt; maxCoursesReached(self): &lt;br&gt; calculateNumberOfCourses(self): &lt;br&gt; removeCourseFromDraft(self): &lt;br&gt; showRequestStatus(self): &lt;br&gt; computeAvailableCoursesToDrop(self): &lt;br&gt; login(self, userName, password): &lt;br&gt; getDepartmentName(self): &lt;br&gt; setPassword(self, password): &lt;br&gt; setUserName(self, userName): &lt;br&gt; getAdvisor(self): &lt;br&gt; setAdvisor(self, advisor): &lt;br&gt; getSemester(self): &lt;br&gt; getDraft(self): &lt;br&gt; setDraft(self, draft): &lt;br&gt; isHasRequest(self): &lt;br&gt; setHasRequest(self, hasRequest): &lt;br&gt; setNotification(self, notification): &lt;br&gt; getTranscript(self): &lt;br&gt; setTranscript(self, transcript): &lt;br&gt; getSchedule(self): &lt;br&gt; getLabSections(self): &lt;/p&gt;" style="verticalAlign=top;align=left;overflow=fill;fontSize=14;fontFamily=Helvetica;html=1;rounded=0;shadow=0;comic=0;labelBackgroundColor=none;strokeWidth=1;" parent="1" vertex="1">
          <mxGeometry x="20" y="918" width="415" height="1217" as="geometry" />
        </mxCell>
      </root>
    </mxGraphModel>
  </diagram>
</mxfile>
